HIERARCHY
ROOT Hips
{
 OFFSET 0.000000 0.000000 0.000000
 CHANNELS 6 Xposition Yposition Zposition Yrotation Xrotation Zrotation
 JOINT Chest
 {
  OFFSET 0.000000 10.383400 0.001500
  CHANNELS 3 Yrotation Xrotation Zrotation
  JOINT Chest2
  {
   OFFSET 0.000000 10.418200 -0.003100
   CHANNELS 3 Yrotation Xrotation Zrotation
   JOINT Chest3
   {
    OFFSET 0.000000 10.375100 0.000000
    CHANNELS 3 Yrotation Xrotation Zrotation
    JOINT Chest4
    {
     OFFSET 0.000000 10.364600 0.000000
     CHANNELS 3 Yrotation Xrotation Zrotation
     JOINT Neck
     {
      OFFSET 0.000000 15.642200 0.000000
      CHANNELS 3 Yrotation Xrotation Zrotation
      JOINT Head
      {
       OFFSET 0.000000 9.697300 -0.006500
       CHANNELS 3 Yrotation Xrotation Zrotation
       End Site
       {
        OFFSET 0.000000 18.492200 -0.003400
       }
      }
     }
     JOINT RightCollar
     {
      OFFSET -3.166800 10.349300 0.000000
      CHANNELS 3 Yrotation Xrotation Zrotation
      JOINT RightShoulder
      {
       OFFSET -14.729700 0.000000 0.000000
       CHANNELS 3 Yrotation Xrotation Zrotation
       JOINT RightElbow
       {
        OFFSET 0.000000 -32.224300 0.000000
        CHANNELS 3 Yrotation Xrotation Zrotation
        JOINT RightWrist
        {
         OFFSET 0.000000 -26.084100 0.000000
         CHANNELS 3 Yrotation Xrotation Zrotation
         End Site
         {
          OFFSET 0.000000 -19.319400 0.000000
         }
        }
       }
      }
     }
     JOINT LeftCollar
     {
      OFFSET 3.166800 10.349300 0.000000
      CHANNELS 3 Yrotation Xrotation Zrotation
      JOINT LeftShoulder
      {
       OFFSET 14.729700 0.000000 0.000000
       CHANNELS 3 Yrotation Xrotation Zrotation
       JOINT LeftElbow
       {
        OFFSET 0.000000 -32.224300 0.000000
        CHANNELS 3 Yrotation Xrotation Zrotation
        JOINT LeftWrist
        {
         OFFSET 0.000000 -26.084100 0.000000
         CHANNELS 3 Yrotation Xrotation Zrotation
         End Site
         {
          OFFSET 0.000000 -19.319400 0.000000
         }
        }
       }
      }
     }
    }
   }
  }
 }
 JOINT RightHip
 {
  OFFSET -8.428900 -0.007500 -0.000800
  CHANNELS 3 Yrotation Xrotation Zrotation
  JOINT RightKnee
  {
   OFFSET 0.000000 -43.834600 0.000700
   CHANNELS 3 Yrotation Xrotation Zrotation
   JOINT RightAnkle
   {
    OFFSET 0.000000 -42.757000 0.001200
    CHANNELS 3 Yrotation Xrotation Zrotation
    JOINT RightToe
    {
     OFFSET 0.000000 -6.946900 15.649300
     CHANNELS 3 Yrotation Xrotation Zrotation
     End Site
     {
      OFFSET 0.000000 -1.580800 6.825800
     }
    }
   }
  }
 }
 JOINT LeftHip
 {
  OFFSET 8.428900 -0.007500 -0.000800
  CHANNELS 3 Yrotation Xrotation Zrotation
  JOINT LeftKnee
  {
   OFFSET 0.000000 -43.834600 0.000700
   CHANNELS 3 Yrotation Xrotation Zrotation
   JOINT LeftAnkle
   {
    OFFSET 0.000000 -42.757000 0.001200
    CHANNELS 3 Yrotation Xrotation Zrotation
    JOINT LeftToe
    {
     OFFSET 0.000000 -6.946900 15.649300
     CHANNELS 3 Yrotation Xrotation Zrotation
     End Site
     {
      OFFSET 0.000000 -1.580800 6.825800
     }
    }
   }
  }
 }
}
MOTION
Frames: 12
Frame Time: 0.008333
0.000000 93.354300 0.000000 0.000000 -5.767877 0.000000 0.000000 11.653817 0.000000 0.000000 -5.885947 0.000000 0.000000 -0.000000 0.000000 0.000000 -0.000000 0.000000 0.000000 12.528835 0.000000 0.000000 0.711642 0.000000 0.000000 -0.000000 0.000000 0.000000 0.000000 -90.000000 0.000000 -2.309062 0.000000 0.000000 2.309062 0.000000 0.000000 -0.000000 0.000000 0.000000 -0.000000 90.000000 0.000000 -2.309062 0.000000 0.000000 2.309062 0.000000 0.000000 8.520406 0.000000 0.000000 1.905762 0.000000 -0.000000 -4.658285 0.000000 0.000000 -0.000000 0.000000 0.000000 8.520406 0.000000 0.000000 1.905762 0.000000 -0.000000 -4.658285 0.000000 0.000000 -0.000000 0.000000
21.179487 126.833876 -40.051792 -15.262946 -26.118316 -0.916823 -0.369222 16.413192 2.061232 -0.064102 1.661064 0.211834 -0.107045 2.777810 0.348234 -0.359470 14.504001 1.820775 1.233272 12.822220 -1.331672 2.871439 -11.929079 -3.033621 -0.808835 -5.565641 -3.053539 5.723844 -14.691366 -3.511926 32.961200 -39.351572 -10.152505 10.477241 6.409300 -18.449188 -4.063824 -7.752948 -3.250004 -0.045990 -6.571248 2.889255 -30.074989 -49.630946 13.685173 -26.019481 -6.021122 12.221731 -3.456213 -43.384962 -0.653917 -31.364109 78.188172 -33.596867 1.952906 -8.690032 6.054795 0.005275 -0.006804 0.002342 -4.241972 -36.534103 -6.886956 -1.769784 71.181073 2.305340 -12.188617 -7.967013 -5.112317 -0.000716 0.000004 -0.000318
21.179355 126.834149 -40.051348 -15.260894 -26.121286 -0.924213 -0.370456 16.415409 2.062147 -0.067597 1.665313 0.209300 -0.106331 2.778466 0.352280 -0.359721 14.503093 1.821455 1.212850 12.819008 -1.322609 2.854625 -11.943120 -3.012490 -0.818585 -5.560135 -3.052582 5.721444 -14.698117 -3.512012 32.941267 -39.359743 -10.143737 10.468672 6.418022 -18.432211 -4.067278 -7.752186 -3.250921 -0.043532 -6.566277 2.909405 -30.060518 -49.647396 13.666042 -26.019797 -6.010373 12.221046 -3.476306 -43.378641 -0.651579 -31.402913 78.177732 -33.623270 1.975320 -8.690163 6.052400 0.007329 -0.006938 0.003253 -4.244703 -36.529583 -6.876292 -1.782865 71.181323 2.285441 -12.190150 -7.967400 -5.109323 -0.001622 -0.000212 -0.000720
21.179830 126.833761 -40.052110 -15.254532 -26.115402 -0.933505 -0.380713 16.419175 2.059271 -0.065335 1.662304 0.212168 -0.105841 2.778078 0.353489 -0.356822 14.498419 1.824282 1.195559 12.821680 -1.315205 2.827067 -11.951200 -2.988996 -0.833852 -5.554052 -3.052080 5.707821 -14.698207 -3.510376 32.933003 -39.371639 -10.138425 10.463090 6.414428 -18.415534 -4.068278 -7.752258 -3.251470 -0.042770 -6.559644 2.925073 -30.047427 -49.660716 13.645522 -26.016652 -6.007125 12.221238 -3.497236 -43.380830 -0.645519 -31.364893 78.176955 -33.584682 1.981697 -8.689403 6.054182 0.005129 -0.006333 0.002277 -4.240323 -36.533009 -6.871918 -1.810984 71.180621 2.260241 -12.182778 -7.965944 -5.107415 -0.000295 0.000728 -0.000131
21.181329 126.833714 -40.051769 -15.251843 -26.113754 -0.935251 -0.383546 16.420210 2.057203 -0.065715 1.662437 0.212275 -0.109711 2.781203 0.350250 -0.362239 14.500934 1.827471 1.183701 12.819846 -1.308157 2.829448 -11.956341 -2.986523 -0.855782 -5.546249 -3.060071 5.693023 -14.702811 -3.504153 32.946073 -39.391541 -10.131853 10.452940 6.408860 -18.402430 -4.071706 -7.755053 -3.256684 -0.027241 -6.560902 2.942374 -30.022426 -49.673008 13.598528 -26.029049 -5.997518 12.239355 -3.508198 -43.381416 -0.646516 -31.339926 78.177152 -33.559164 1.986536 -8.687351 6.051390 0.004729 -0.007009 0.002099 -4.230070 -36.531372 -6.876145 -1.835674 71.178338 2.237203 -12.171937 -7.963441 -5.106464 0.000694 0.001197 0.000308
21.181151 126.833616 -40.051975 -15.247365 -26.111088 -0.948108 -0.385734 16.419550 2.064571 -0.065966 1.662583 0.212438 -0.114757 2.784781 0.346470 -0.363621 14.501453 1.830862 1.166227 12.821567 -1.299072 2.833246 -11.961816 -2.983105 -0.864200 -5.545185 -3.065217 5.695026 -14.706605 -3.499242 32.948722 -39.398620 -10.128335 10.439125 6.404178 -18.397475 -4.074356 -7.759225 -3.259869 -0.014507 -6.561665 2.951953 -29.997340 -49.677680 13.563655 -26.029629 -5.992062 12.238751 -3.544433 -43.381095 -0.638225 -31.265481 78.178302 -33.474385 2.001523 -8.682976 6.033954 0.005411 -0.007381 0.002402 -4.218328 -36.529230 -6.869245 -1.866698 71.175143 2.215610 -12.174175 -7.962953 -5.105148 0.001811 0.002415 0.000804
21.181735 126.833476 -40.051998 -15.247248 -26.107911 -0.954798 -0.390645 16.422068 2.061788 -0.071801 1.666101 0.204880 -0.104992 2.778633 0.357787 -0.373022 14.507232 1.826205 1.149994 12.821328 -1.285893 2.805313 -11.961733 -2.955490 -0.864095 -5.548784 -3.065402 5.679451 -14.702572 -3.501700 32.949585 -39.410583 -10.122571 10.432692 6.392616 -18.388616 -4.083442 -7.767842 -3.259511 0.009765 -6.554001 2.968714 -29.962909 -49.697930 13.522409 -25.991883 -5.992979 12.218108 -3.560504 -43.383165 -0.632417 -31.228051 78.179651 -33.433126 2.006938 -8.680580 6.035232 0.005755 -0.008301 0.002554 -4.215574 -36.530618 -6.857244 -1.906072 71.173517 2.169974 -12.174389 -7.960526 -5.094518 0.000262 0.002444 0.000116
21.180955 126.833399 -40.052251 -15.248532 -26.105347 -0.968068 -0.390094 16.422632 2.067157 -0.071312 1.664869 0.207173 -0.103641 2.779129 0.359474 -0.381375 14.511118 1.823038 1.138448 12.821479 -1.275650 2.691846 -11.943867 -2.876599 -0.856338 -5.552756 -3.063433 5.645223 -14.692560 -3.501770 32.959381 -39.425501 -10.121376 10.431158 6.386608 -18.383766 -4.091297 -7.775295 -3.261809 0.028467 -6.541452 2.982570 -29.922258 -49.718076 13.485623 -25.987730 -5.997406 12.214466 -3.580302 -43.383536 -0.616496 -31.203924 78.176331 -33.403019 2.015843 -8.675135 6.028517 0.005330 -0.009388 0.002366 -4.222311 -36.531876 -6.839684 -1.924656 71.173685 2.152740 -12.173703 -7.961673 -5.094634 0.000171 0.002513 0.000076
21.181617 126.833321 -40.051964 -15.251689 -26.103378 -0.971377 -0.401982 16.423283 2.054400 -0.064595 1.663208 0.213672 -0.100557 2.780548 0.358617 -0.393725 14.509057 1.815099 1.152183 12.824180 -1.263200 2.586677 -11.921155 -2.802997 -0.845011 -5.541714 -3.061688 5.637486 -14.701952 -3.493262 32.943784 -39.424115 -10.128654 10.438132 6.378605 -18.370870 -4.108631 -7.776442 -3.270411 0.054256 -6.532332 3.004521 -29.840688 -49.731959 13.435078 -26.010947 -6.015741 12.204776 -3.590146 -43.383944 -0.615229 -31.176088 78.172342 -33.367351 2.026382 -8.669534 6.019649 0.006193 -0.009184 0.002749 -4.216326 -36.533406 -6.834372 -1.947219 71.173227 2.135444 -12.185660 -7.960733 -5.093730 0.000244 0.001764 0.000108
21.182329 126.833180 -40.051723 -15.255099 -26.100873 -0.973600 -0.407468 16.421078 2.048431 -0.067633 1.662464 0.211909 -0.109587 2.778280 0.353211 -0.388628 14.506608 1.817362 1.134762 12.835832 -1.244352 2.580655 -11.915206 -2.791322 -0.835656 -5.531212 -3.064850 5.639891 -14.707172 -3.482982 32.904932 -39.406240 -10.144004 10.466384 6.349379 -18.337381 -4.106819 -7.769884 -3.274715 0.060548 -6.524727 3.014772 -29.806885 -49.739053 13.430771 -26.016931 -6.031085 12.191043 -3.600953 -43.385558 -0.615825 -31.133703 78.171733 -33.317645 2.026897 -8.662853 6.022049 0.004925 -0.008608 0.002186 -4.211395 -36.536630 -6.834516 -1.951685 71.175147 2.135500 -12.180732 -7.960622 -5.092904 0.000794 0.000290 0.000352
21.182177 126.832921 -40.051955 -15.256961 -26.096939 -0.981037 -0.408027 16.416980 2.051805 -0.072250 1.660819 0.206909 -0.110056 2.776972 0.352650 -0.391803 14.503576 1.814638 1.110459 12.848829 -1.221417 2.500872 -11.890299 -2.724111 -0.829458 -5.521257 -3.067178 5.637034 -14.707859 -3.471563 32.905140 -39.407614 -10.146879 10.451446 6.349324 -18.346366 -4.109253 -7.761029 -3.278863 0.050242 -6.513306 3.013819 -29.795972 -49.741571 13.459527 -26.010372 -6.040319 12.180041 -3.615842 -43.388351 -0.608717 -31.105524 78.170591 -33.280899 2.031153 -8.658765 6.016555 0.005519 -0.008887 0.002450 -4.217876 -36.543544 -6.825937 -1.962675 71.179562 2.129492 -12.181282 -7.957296 -5.089445 0.001165 0.000884 0.000517
21.181694 126.832769 -40.052120 -15.259360 -26.094181 -0.989266 -0.407785 16.413326 2.055679 -0.074096 1.660291 0.203945 -0.111699 2.775020 0.350515 -0.392481 14.500454 1.811079 1.081097 12.859706 -1.197352 2.419270 -11.863055 -2.650112 -0.830237 -5.512912 -3.069765 5.639311 -14.709195 -3.457099 32.885395 -39.398525 -10.154833 10.419001 6.338197 -18.352200 -4.113947 -7.749459 -3.281882 0.056578 -6.515211 3.022298 -29.769970 -49.745845 13.457706 -25.972547 -6.069929 12.163575 -3.625505 -43.389943 -0.598358 -31.109702 78.166936 -33.274830 2.035415 -8.655638 6.008129 0.008992 -0.009339 0.003991 -4.226303 -36.549072 -6.811572 -1.964747 71.183712 2.125870 -12.188013 -7.957303 -5.085963 0.000666 0.000794 0.000296
